<svg width="170" height="32" viewBox="0 0 170 32" fill="none" xmlns="http://www.w3.org/2000/svg">
<path d="M0 4.36364C0 1.95367 1.95367 0 4.36364 0H59.6364C62.0463 0 64 1.95367 64 4.36364V27.6364C64 30.0463 62.0463 32 59.6364 32H4.36364C1.95367 32 0 30.0463 0 27.6364V4.36364Z" fill="#2A3546"/>
<path d="M77.3631 23.6218C76.1593 23.6218 75.0701 23.3433 74.0956 22.7863C73.1325 22.2172 72.3758 21.4423 71.8255 20.4615C71.2752 19.4687 71 18.3547 71 17.1197C71 15.8846 71.2752 14.7767 71.8255 13.7959C72.3758 12.8031 73.1382 12.0281 74.1128 11.4712C75.0873 10.9021 76.1765 10.6175 77.3803 10.6175C78.3204 10.6175 79.1803 10.787 79.9599 11.1261C80.7395 11.453 81.4045 11.9434 81.9548 12.5972L80.837 13.7415C79.9313 12.7365 78.802 12.234 77.4491 12.234C76.5548 12.234 75.7465 12.4459 75.0242 12.8697C74.3019 13.2934 73.7344 13.8807 73.3217 14.6314C72.9204 15.37 72.7198 16.1994 72.7198 17.1197C72.7198 18.0399 72.9204 18.8754 73.3217 19.6261C73.7344 20.3647 74.3019 20.9459 75.0242 21.3697C75.7465 21.7934 76.5548 22.0053 77.4491 22.0053C78.7905 22.0053 79.9198 21.4968 80.837 20.4797L81.9548 21.6239C81.4045 22.2778 80.7338 22.7742 79.9427 23.1132C79.1631 23.4523 78.3032 23.6218 77.3631 23.6218Z" fill="#2A3546"/>
<path d="M88.2009 23.5855C87.2952 23.5855 86.4812 23.3736 85.7589 22.9498C85.0366 22.526 84.469 21.9448 84.0563 21.2062C83.655 20.4555 83.4544 19.6079 83.4544 18.6635C83.4544 17.719 83.655 16.8775 84.0563 16.1389C84.469 15.3882 85.0366 14.807 85.7589 14.3953C86.4812 13.9715 87.2952 13.7596 88.2009 13.7596C89.1066 13.7596 89.9149 13.9715 90.6258 14.3953C91.3481 14.807 91.9098 15.3882 92.3111 16.1389C92.7239 16.8775 92.9302 17.719 92.9302 18.6635C92.9302 19.6079 92.7239 20.4555 92.3111 21.2062C91.9098 21.9448 91.3481 22.526 90.6258 22.9498C89.9149 23.3736 89.1066 23.5855 88.2009 23.5855ZM88.2009 22.0598C88.7856 22.0598 89.3073 21.9206 89.7659 21.6421C90.236 21.3515 90.6028 20.9519 90.8665 20.4434C91.1302 19.9227 91.2621 19.3294 91.2621 18.6635C91.2621 17.9975 91.1302 17.4103 90.8665 16.9017C90.6028 16.3811 90.236 15.9815 89.7659 15.703C89.3073 15.4245 88.7856 15.2853 88.2009 15.2853C87.6162 15.2853 87.0888 15.4245 86.6187 15.703C86.1601 15.9815 85.7933 16.3811 85.5181 16.9017C85.2544 17.4103 85.1225 17.9975 85.1225 18.6635C85.1225 19.3294 85.2544 19.9227 85.5181 20.4434C85.7933 20.9519 86.1601 21.3515 86.6187 21.6421C87.0888 21.9206 87.6162 22.0598 88.2009 22.0598Z" fill="#2A3546"/>
<path d="M107.131 13.7596C108.278 13.7596 109.184 14.1108 109.849 14.813C110.525 15.5153 110.863 16.5566 110.863 17.937V23.4765H109.212V18.1368C109.212 17.2044 109.006 16.5021 108.593 16.0299C108.192 15.5577 107.613 15.3216 106.856 15.3216C106.019 15.3216 105.354 15.6001 104.861 16.1571C104.368 16.7019 104.122 17.489 104.122 18.5182V23.4765H102.471V18.1368C102.471 17.2044 102.264 16.5021 101.852 16.0299C101.45 15.5577 100.871 15.3216 100.115 15.3216C99.2778 15.3216 98.6129 15.6001 98.1199 16.1571C97.6269 16.7019 97.3804 17.489 97.3804 18.5182V23.4765H95.7294V13.8504H97.3116V15.2853C97.6441 14.7888 98.0797 14.4135 98.6186 14.1592C99.1575 13.8928 99.7708 13.7596 100.459 13.7596C101.17 13.7596 101.8 13.911 102.35 14.2137C102.901 14.5164 103.325 14.9583 103.623 15.5395C103.967 14.9826 104.443 14.5467 105.05 14.2318C105.67 13.917 106.363 13.7596 107.131 13.7596Z" fill="#2A3546"/>
<path d="M119.249 13.7596C120.132 13.7596 120.923 13.9655 121.623 14.3771C122.322 14.7888 122.867 15.364 123.257 16.1026C123.658 16.8412 123.858 17.6948 123.858 18.6635C123.858 19.6321 123.658 20.4918 123.257 21.2425C122.867 21.9811 122.322 22.5563 121.623 22.9679C120.923 23.3796 120.132 23.5855 119.249 23.5855C118.596 23.5855 117.994 23.4523 117.444 23.1859C116.905 22.9195 116.446 22.5321 116.068 22.0235V27H114.417V13.8504H115.999V15.3761C116.366 14.8433 116.83 14.4437 117.392 14.1774C117.954 13.8989 118.573 13.7596 119.249 13.7596ZM119.112 22.0598C119.697 22.0598 120.218 21.9206 120.677 21.6421C121.147 21.3515 121.514 20.9519 121.778 20.4434C122.053 19.9227 122.19 19.3294 122.19 18.6635C122.19 17.9975 122.053 17.4103 121.778 16.9017C121.514 16.3811 121.147 15.9815 120.677 15.703C120.218 15.4245 119.697 15.2853 119.112 15.2853C118.539 15.2853 118.017 15.4306 117.547 15.7212C117.088 15.9996 116.721 16.3932 116.446 16.9017C116.183 17.4103 116.051 17.9975 116.051 18.6635C116.051 19.3294 116.183 19.9227 116.446 20.4434C116.71 20.9519 117.077 21.3515 117.547 21.6421C118.017 21.9206 118.539 22.0598 119.112 22.0598Z" fill="#2A3546"/>
<path d="M126.655 10H128.306V23.4765H126.655V10Z" fill="#2A3546"/>
<path d="M140.212 18.7179C140.212 18.8511 140.201 19.0267 140.178 19.2447H132.783C132.886 20.0922 133.236 20.7764 133.832 21.297C134.44 21.8056 135.191 22.0598 136.085 22.0598C137.174 22.0598 138.051 21.6724 138.716 20.8974L139.628 22.0235C139.215 22.5321 138.699 22.9195 138.08 23.1859C137.472 23.4523 136.79 23.5855 136.033 23.5855C135.07 23.5855 134.216 23.3796 133.471 22.9679C132.726 22.5442 132.147 21.9569 131.734 21.2062C131.333 20.4555 131.132 19.6079 131.132 18.6635C131.132 17.7311 131.327 16.8896 131.717 16.1389C132.118 15.3882 132.662 14.807 133.35 14.3953C134.05 13.9715 134.835 13.7596 135.706 13.7596C136.578 13.7596 137.352 13.9715 138.028 14.3953C138.716 14.807 139.249 15.3882 139.628 16.1389C140.017 16.8896 140.212 17.7493 140.212 18.7179ZM135.706 15.2308C134.915 15.2308 134.25 15.485 133.712 15.9936C133.184 16.5021 132.875 17.1681 132.783 17.9915H138.63C138.538 17.1802 138.223 16.5203 137.684 16.0118C137.157 15.4911 136.498 15.2308 135.706 15.2308Z" fill="#2A3546"/>
<path d="M148.146 22.9135C147.905 23.1314 147.607 23.3009 147.251 23.422C146.896 23.531 146.529 23.5855 146.151 23.5855C145.233 23.5855 144.523 23.3251 144.018 22.8045C143.514 22.2838 143.261 21.5392 143.261 20.5705V15.2853H141.714V13.8504H143.261V11.7436H144.912V13.8504H147.526V15.2853H144.912V20.4979C144.912 21.0185 145.033 21.4181 145.274 21.6966C145.526 21.9751 145.881 22.1143 146.34 22.1143C146.844 22.1143 147.274 21.963 147.63 21.6603L148.146 22.9135Z" fill="#2A3546"/>
<path d="M158.593 18.7179C158.593 18.8511 158.581 19.0267 158.558 19.2447H151.163C151.267 20.0922 151.616 20.7764 152.212 21.297C152.82 21.8056 153.571 22.0598 154.465 22.0598C155.555 22.0598 156.432 21.6724 157.097 20.8974L158.008 22.0235C157.595 22.5321 157.079 22.9195 156.46 23.1859C155.853 23.4523 155.17 23.5855 154.414 23.5855C153.451 23.5855 152.597 23.3796 151.851 22.9679C151.106 22.5442 150.527 21.9569 150.114 21.2062C149.713 20.4555 149.512 19.6079 149.512 18.6635C149.512 17.7311 149.707 16.8896 150.097 16.1389C150.498 15.3882 151.043 14.807 151.731 14.3953C152.43 13.9715 153.216 13.7596 154.087 13.7596C154.958 13.7596 155.732 13.9715 156.409 14.3953C157.097 14.807 157.63 15.3882 158.008 16.1389C158.398 16.8896 158.593 17.7493 158.593 18.7179ZM154.087 15.2308C153.296 15.2308 152.631 15.485 152.092 15.9936C151.565 16.5021 151.255 17.1681 151.163 17.9915H157.011C156.919 17.1802 156.604 16.5203 156.065 16.0118C155.537 15.4911 154.878 15.2308 154.087 15.2308Z" fill="#2A3546"/>
<path d="M170 10V23.4765H168.418V21.9509C168.051 22.4836 167.587 22.8892 167.025 23.1677C166.463 23.4462 165.844 23.5855 165.167 23.5855C164.285 23.5855 163.494 23.3796 162.794 22.9679C162.095 22.5563 161.545 21.9811 161.143 21.2425C160.753 20.4918 160.559 19.6321 160.559 18.6635C160.559 17.6948 160.753 16.8412 161.143 16.1026C161.545 15.364 162.095 14.7888 162.794 14.3771C163.494 13.9655 164.285 13.7596 165.167 13.7596C165.821 13.7596 166.423 13.8928 166.973 14.1592C167.524 14.4135 167.982 14.7949 168.349 15.3034V10H170ZM165.305 22.0598C165.878 22.0598 166.4 21.9206 166.87 21.6421C167.34 21.3515 167.707 20.9519 167.971 20.4434C168.234 19.9227 168.366 19.3294 168.366 18.6635C168.366 17.9975 168.234 17.4103 167.971 16.9017C167.707 16.3811 167.34 15.9815 166.87 15.703C166.4 15.4245 165.878 15.2853 165.305 15.2853C164.72 15.2853 164.193 15.4245 163.723 15.703C163.264 15.9815 162.897 16.3811 162.622 16.9017C162.359 17.4103 162.227 17.9975 162.227 18.6635C162.227 19.3294 162.359 19.9227 162.622 20.4434C162.897 20.9519 163.264 21.3515 163.723 21.6421C164.193 21.9206 164.72 22.0598 165.305 22.0598Z" fill="#2A3546"/>
<path d="M74.4644 5.72848C74.1629 5.72848 73.883 5.67108 73.6245 5.55629C73.3661 5.43709 73.1579 5.27152 73 5.0596L73.4164 4.60927C73.6939 4.97572 74.0433 5.15894 74.4644 5.15894C74.7468 5.15894 74.9598 5.07947 75.1034 4.92053C75.2517 4.76159 75.3259 4.52759 75.3259 4.21854V1.61589H73.5097V1.03974H76.0366V4.18543C76.0366 4.69757 75.9026 5.08389 75.6346 5.34437C75.3714 5.60044 74.9813 5.72848 74.4644 5.72848Z" fill="#2A3546"/>
<path d="M81.4471 2.16556V5.6755H80.7939V5.1457C80.6551 5.32671 80.4708 5.46799 80.2411 5.56954C80.0162 5.66667 79.7697 5.71523 79.5017 5.71523C78.9944 5.71523 78.5948 5.5872 78.3029 5.33113C78.0109 5.07064 77.865 4.68874 77.865 4.18543V2.16556H78.5541V4.11258C78.5541 4.45254 78.6426 4.71082 78.8197 4.88742C78.9968 5.0596 79.2504 5.1457 79.5807 5.1457C79.9444 5.1457 80.2315 5.04415 80.4421 4.84106C80.6527 4.63797 80.758 4.35099 80.758 3.98013V2.16556H81.4471Z" fill="#2A3546"/>
<path d="M84.3527 5.71523C84.0417 5.71523 83.7425 5.6777 83.4554 5.60265C83.1683 5.52318 82.9433 5.42384 82.7806 5.30464L83.0678 4.80132C83.2353 4.9117 83.4387 5 83.6779 5.06623C83.9172 5.13245 84.1589 5.16556 84.403 5.16556C85.006 5.16556 85.3075 5.00662 85.3075 4.68874C85.3075 4.58278 85.2668 4.4989 85.1855 4.43709C85.1041 4.37528 85.0012 4.33113 84.8768 4.30464C84.7571 4.27373 84.5848 4.24062 84.3599 4.2053C84.0536 4.16115 83.8024 4.11038 83.6062 4.05298C83.4147 3.99559 83.2496 3.89846 83.1108 3.76159C82.972 3.62472 82.9026 3.43267 82.9026 3.18543C82.9026 2.86755 83.0462 2.61369 83.3334 2.42384C83.6205 2.22958 84.0058 2.13245 84.4891 2.13245C84.7428 2.13245 84.9964 2.16115 85.2501 2.21854C85.5037 2.27594 85.7119 2.3532 85.8746 2.45033L85.5803 2.95364C85.2692 2.76821 84.9031 2.6755 84.482 2.6755C84.19 2.6755 83.9675 2.71965 83.8143 2.80795C83.6612 2.89625 83.5846 3.01325 83.5846 3.15894C83.5846 3.27373 83.6277 3.36424 83.7138 3.43046C83.8 3.49669 83.9053 3.54525 84.0297 3.57616C84.1589 3.60706 84.3384 3.64238 84.5681 3.68212C84.8744 3.73068 85.1209 3.78366 85.3075 3.84106C85.4989 3.89404 85.6616 3.98675 85.7957 4.11921C85.9297 4.25166 85.9967 4.43709 85.9967 4.6755C85.9967 4.99338 85.8483 5.24724 85.5516 5.43709C85.2596 5.62252 84.86 5.71523 84.3527 5.71523Z" fill="#2A3546"/>
<path d="M89.4997 5.4702C89.3992 5.54967 89.2747 5.61148 89.1264 5.65563C88.978 5.69536 88.8249 5.71523 88.667 5.71523C88.2841 5.71523 87.9874 5.62031 87.7768 5.43046C87.5662 5.24062 87.4609 4.96909 87.4609 4.61589V2.68874H86.8149V2.16556H87.4609V1.39735H88.1501V2.16556H89.2412V2.68874H88.1501V4.5894C88.1501 4.77925 88.2003 4.92494 88.3008 5.02649C88.4061 5.12804 88.5545 5.17881 88.7459 5.17881C88.9565 5.17881 89.136 5.12362 89.2843 5.01325L89.4997 5.4702Z" fill="#2A3546"/>
<path d="M94.924 5.71523C94.5364 5.71523 94.1894 5.63797 93.8831 5.48344C93.5816 5.32892 93.3447 5.117 93.1724 4.84768C93.0001 4.57395 92.914 4.2649 92.914 3.92053C92.914 3.57616 93.0001 3.26932 93.1724 3C93.3447 2.72627 93.5816 2.51435 93.8831 2.36424C94.1894 2.20971 94.5364 2.13245 94.924 2.13245C95.2686 2.13245 95.5749 2.19647 95.8429 2.3245C96.1157 2.45254 96.3262 2.63797 96.4746 2.88079L95.9506 3.19205C95.8309 3.02428 95.6826 2.89845 95.5055 2.81457C95.3284 2.73068 95.1322 2.68874 94.9168 2.68874C94.668 2.68874 94.443 2.73951 94.242 2.84106C94.0458 2.94261 93.8903 3.0883 93.7754 3.27815C93.6653 3.46358 93.6103 3.6777 93.6103 3.92053C93.6103 4.16777 93.6653 4.38631 93.7754 4.57616C93.8903 4.76159 94.0458 4.90508 94.242 5.00662C94.443 5.10817 94.668 5.15894 94.9168 5.15894C95.1322 5.15894 95.3284 5.117 95.5055 5.03311C95.6826 4.94923 95.8309 4.8234 95.9506 4.65563L96.4746 4.96027C96.3262 5.20309 96.1157 5.39073 95.8429 5.52318C95.5749 5.65121 95.2686 5.71523 94.924 5.71523Z" fill="#2A3546"/>
<path d="M99.4428 5.71523C99.0647 5.71523 98.7249 5.63797 98.4234 5.48344C98.1219 5.32892 97.885 5.117 97.7128 4.84768C97.5453 4.57395 97.4615 4.2649 97.4615 3.92053C97.4615 3.57616 97.5453 3.26932 97.7128 3C97.885 2.72627 98.1219 2.51435 98.4234 2.36424C98.7249 2.20971 99.0647 2.13245 99.4428 2.13245C99.8209 2.13245 100.158 2.20971 100.455 2.36424C100.757 2.51435 100.991 2.72627 101.159 3C101.331 3.26932 101.417 3.57616 101.417 3.92053C101.417 4.2649 101.331 4.57395 101.159 4.84768C100.991 5.117 100.757 5.32892 100.455 5.48344C100.158 5.63797 99.8209 5.71523 99.4428 5.71523ZM99.4428 5.15894C99.6869 5.15894 99.9046 5.10817 100.096 5.00662C100.292 4.90066 100.445 4.75497 100.556 4.56954C100.666 4.37969 100.721 4.16336 100.721 3.92053C100.721 3.6777 100.666 3.46358 100.556 3.27815C100.445 3.0883 100.292 2.94261 100.096 2.84106C99.9046 2.73951 99.6869 2.68874 99.4428 2.68874C99.1987 2.68874 98.9786 2.73951 98.7824 2.84106C98.5909 2.94261 98.4378 3.0883 98.3229 3.27815C98.2129 3.46358 98.1578 3.6777 98.1578 3.92053C98.1578 4.16336 98.2129 4.37969 98.3229 4.56954C98.4378 4.75497 98.5909 4.90066 98.7824 5.00662C98.9786 5.10817 99.1987 5.15894 99.4428 5.15894Z" fill="#2A3546"/>
<path d="M104.89 2.13245C105.258 2.13245 105.588 2.20751 105.88 2.35762C106.172 2.50773 106.4 2.71744 106.562 2.98675C106.73 3.25607 106.814 3.56733 106.814 3.92053C106.814 4.27373 106.73 4.5872 106.562 4.86093C106.4 5.13024 106.172 5.33996 105.88 5.49007C105.588 5.64018 105.258 5.71523 104.89 5.71523C104.617 5.71523 104.366 5.66667 104.136 5.56954C103.911 5.47241 103.72 5.33113 103.562 5.1457V6.96027H102.873V2.16556H103.533V2.72185C103.686 2.52759 103.88 2.3819 104.114 2.28477C104.349 2.18322 104.607 2.13245 104.89 2.13245ZM104.832 5.15894C105.076 5.15894 105.294 5.10817 105.486 5.00662C105.682 4.90066 105.835 4.75497 105.945 4.56954C106.06 4.37969 106.117 4.16336 106.117 3.92053C106.117 3.6777 106.06 3.46358 105.945 3.27815C105.835 3.0883 105.682 2.94261 105.486 2.84106C105.294 2.73951 105.076 2.68874 104.832 2.68874C104.593 2.68874 104.375 2.74172 104.179 2.84768C103.988 2.94923 103.834 3.09272 103.72 3.27815C103.61 3.46358 103.555 3.6777 103.555 3.92053C103.555 4.16336 103.61 4.37969 103.72 4.56954C103.83 4.75497 103.983 4.90066 104.179 5.00662C104.375 5.10817 104.593 5.15894 104.832 5.15894Z" fill="#2A3546"/>
<path d="M111.53 2.16556L109.685 6.02649C109.522 6.38411 109.331 6.63576 109.111 6.78146C108.895 6.92715 108.635 7 108.328 7C108.142 7 107.96 6.9713 107.783 6.91391C107.61 6.86093 107.467 6.78146 107.352 6.6755L107.646 6.19868C107.843 6.37086 108.07 6.45695 108.328 6.45695C108.496 6.45695 108.635 6.41501 108.745 6.33113C108.859 6.25166 108.962 6.11258 109.053 5.91391L109.175 5.66887L107.496 2.16556H108.213L109.541 4.97351L110.855 2.16556H111.53Z" fill="#2A3546"/>
<path d="M118.882 5.74834L118.214 5.13245C117.769 5.5298 117.209 5.72848 116.535 5.72848C116.2 5.72848 115.898 5.6777 115.63 5.57616C115.362 5.47461 115.151 5.33333 114.998 5.15232C114.85 4.96689 114.776 4.75717 114.776 4.52318C114.776 4.24062 114.869 3.99117 115.056 3.77483C115.247 3.55408 115.561 3.32892 115.996 3.09934C115.776 2.89625 115.62 2.71302 115.53 2.54967C115.439 2.38631 115.393 2.21634 115.393 2.03974C115.393 1.72627 115.515 1.47461 115.759 1.28477C116.008 1.09492 116.338 1 116.75 1C117.133 1 117.437 1.08609 117.662 1.25828C117.887 1.43046 117.999 1.66667 117.999 1.96689C117.999 2.20088 117.915 2.4106 117.748 2.59603C117.585 2.78146 117.312 2.97572 116.929 3.17881L118.171 4.31788C118.315 4.06623 118.418 3.78587 118.48 3.47682L119.033 3.64238C118.947 4.04857 118.801 4.40177 118.595 4.70199L119.27 5.3245L118.882 5.74834ZM116.75 1.46358C116.525 1.46358 116.348 1.51656 116.219 1.62252C116.094 1.72406 116.032 1.85872 116.032 2.02649C116.032 2.1457 116.066 2.26049 116.133 2.37086C116.204 2.48124 116.341 2.63135 116.542 2.82119C116.872 2.64901 117.099 2.5011 117.224 2.37748C117.353 2.25386 117.418 2.11921 117.418 1.97351C117.418 1.81898 117.358 1.69536 117.238 1.60265C117.123 1.50993 116.961 1.46358 116.75 1.46358ZM116.578 5.19868C117.075 5.19868 117.485 5.05298 117.805 4.76159L116.377 3.45033C116.032 3.62693 115.79 3.79249 115.652 3.94702C115.518 4.09713 115.451 4.26711 115.451 4.45695C115.451 4.6777 115.553 4.85651 115.759 4.99338C115.97 5.13024 116.243 5.19868 116.578 5.19868Z" fill="#2A3546"/>
<path d="M124.977 2.13245C125.346 2.13245 125.676 2.20751 125.968 2.35762C126.26 2.50773 126.487 2.71744 126.65 2.98675C126.818 3.25607 126.901 3.56733 126.901 3.92053C126.901 4.27373 126.818 4.5872 126.65 4.86093C126.487 5.13024 126.26 5.33996 125.968 5.49007C125.676 5.64018 125.346 5.71523 124.977 5.71523C124.705 5.71523 124.453 5.66667 124.224 5.56954C123.999 5.47241 123.807 5.33113 123.649 5.1457V6.96027H122.96V2.16556H123.621V2.72185C123.774 2.52759 123.968 2.3819 124.202 2.28477C124.437 2.18322 124.695 2.13245 124.977 2.13245ZM124.92 5.15894C125.164 5.15894 125.382 5.10817 125.573 5.00662C125.769 4.90066 125.923 4.75497 126.033 4.56954C126.148 4.37969 126.205 4.16336 126.205 3.92053C126.205 3.6777 126.148 3.46358 126.033 3.27815C125.923 3.0883 125.769 2.94261 125.573 2.84106C125.382 2.73951 125.164 2.68874 124.92 2.68874C124.681 2.68874 124.463 2.74172 124.267 2.84768C124.075 2.94923 123.922 3.09272 123.807 3.27815C123.697 3.46358 123.642 3.6777 123.642 3.92053C123.642 4.16336 123.697 4.37969 123.807 4.56954C123.917 4.75497 124.071 4.90066 124.267 5.00662C124.463 5.10817 124.681 5.15894 124.92 5.15894Z" fill="#2A3546"/>
<path d="M129.706 2.13245C130.233 2.13245 130.635 2.25166 130.912 2.49007C131.195 2.72848 131.336 3.08389 131.336 3.55629V5.6755H130.683V5.21192C130.568 5.37528 130.403 5.5011 130.187 5.5894C129.977 5.67329 129.726 5.71523 129.434 5.71523C129.008 5.71523 128.666 5.62031 128.407 5.43046C128.153 5.24062 128.027 4.99117 128.027 4.68212C128.027 4.37307 128.149 4.12583 128.393 3.9404C128.637 3.75055 129.024 3.65563 129.556 3.65563H130.647V3.5298C130.647 3.25607 130.561 3.04636 130.388 2.90066C130.216 2.75497 129.962 2.68212 129.627 2.68212C129.403 2.68212 129.182 2.71744 128.967 2.78808C128.752 2.8543 128.57 2.94481 128.421 3.0596L128.134 2.58278C128.331 2.43709 128.565 2.32671 128.838 2.25166C129.111 2.17219 129.4 2.13245 129.706 2.13245ZM129.548 5.22517C129.812 5.22517 130.039 5.17219 130.23 5.06623C130.422 4.95585 130.561 4.80132 130.647 4.60265V4.11258H129.584C129.001 4.11258 128.709 4.2936 128.709 4.65563C128.709 4.83223 128.783 4.9713 128.931 5.07285C129.079 5.17439 129.285 5.22517 129.548 5.22517Z" fill="#2A3546"/>
<path d="M134.205 5.71523C133.894 5.71523 133.595 5.6777 133.308 5.60265C133.021 5.52318 132.796 5.42384 132.633 5.30464L132.92 4.80132C133.088 4.9117 133.291 5 133.53 5.06623C133.769 5.13245 134.011 5.16556 134.255 5.16556C134.858 5.16556 135.16 5.00662 135.16 4.68874C135.16 4.58278 135.119 4.4989 135.038 4.43709C134.956 4.37528 134.853 4.33113 134.729 4.30464C134.609 4.27373 134.437 4.24062 134.212 4.2053C133.906 4.16115 133.655 4.11038 133.458 4.05298C133.267 3.99559 133.102 3.89846 132.963 3.76159C132.824 3.62472 132.755 3.43267 132.755 3.18543C132.755 2.86755 132.898 2.61369 133.186 2.42384C133.473 2.22958 133.858 2.13245 134.341 2.13245C134.595 2.13245 134.849 2.16115 135.102 2.21854C135.356 2.27594 135.564 2.3532 135.727 2.45033L135.433 2.95364C135.121 2.76821 134.755 2.6755 134.334 2.6755C134.042 2.6755 133.82 2.71965 133.667 2.80795C133.513 2.89625 133.437 3.01325 133.437 3.15894C133.437 3.27373 133.48 3.36424 133.566 3.43046C133.652 3.49669 133.758 3.54525 133.882 3.57616C134.011 3.60706 134.191 3.64238 134.42 3.68212C134.727 3.73068 134.973 3.78366 135.16 3.84106C135.351 3.89404 135.514 3.98675 135.648 4.11921C135.782 4.25166 135.849 4.43709 135.849 4.6755C135.849 4.99338 135.701 5.24724 135.404 5.43709C135.112 5.62252 134.712 5.71523 134.205 5.71523Z" fill="#2A3546"/>
<path d="M139.352 5.4702C139.251 5.54967 139.127 5.61148 138.979 5.65563C138.83 5.69536 138.677 5.71523 138.519 5.71523C138.136 5.71523 137.84 5.62031 137.629 5.43046C137.418 5.24062 137.313 4.96909 137.313 4.61589V2.68874H136.667V2.16556H137.313V1.39735H138.002V2.16556H139.093V2.68874H138.002V4.5894C138.002 4.77925 138.053 4.92494 138.153 5.02649C138.258 5.12804 138.407 5.17881 138.598 5.17881C138.809 5.17881 138.988 5.12362 139.137 5.01325L139.352 5.4702Z" fill="#2A3546"/>
<path d="M144 3.9404C144 3.98896 143.995 4.05298 143.986 4.13245H140.899C140.942 4.4415 141.088 4.69095 141.337 4.8808C141.59 5.06623 141.904 5.15894 142.277 5.15894C142.732 5.15894 143.098 5.01766 143.375 4.7351L143.756 5.1457C143.584 5.33113 143.368 5.47241 143.11 5.56954C142.856 5.66667 142.571 5.71523 142.256 5.71523C141.854 5.71523 141.497 5.64018 141.186 5.49007C140.875 5.33554 140.633 5.12141 140.461 4.84768C140.293 4.57395 140.21 4.2649 140.21 3.92053C140.21 3.58057 140.291 3.27373 140.454 3C140.621 2.72627 140.849 2.51435 141.136 2.36424C141.428 2.20971 141.755 2.13245 142.119 2.13245C142.483 2.13245 142.806 2.20971 143.088 2.36424C143.375 2.51435 143.598 2.72627 143.756 3C143.919 3.27373 144 3.5872 144 3.9404ZM142.119 2.66887C141.789 2.66887 141.511 2.76159 141.286 2.94702C141.066 3.13245 140.937 3.37528 140.899 3.6755H143.34C143.301 3.37969 143.17 3.13907 142.945 2.95364C142.725 2.7638 142.449 2.66887 142.119 2.66887Z" fill="#2A3546"/>
<path d="M19.6249 18.2378C19.4776 19.7352 18.9015 20.9049 17.8968 21.7468C16.892 22.5823 15.5557 23 13.8878 23C12.7223 23 11.6941 22.7365 10.8032 22.2095C9.91907 21.6761 9.23584 20.921 8.75356 19.9441C8.27128 18.9672 8.02009 17.8329 8 16.5411V15.2301C8 13.9062 8.24449 12.7397 8.73347 11.7307C9.22244 10.7217 9.92242 9.94409 10.8334 9.39781C11.7511 8.85154 12.8094 8.57841 14.0084 8.57841C15.6227 8.57841 16.9222 8.99936 17.9068 9.84126C18.8915 10.6832 19.4642 11.8721 19.6249 13.4081H17.093C16.9724 12.3991 16.6643 11.6729 16.1686 11.2294C15.6796 10.7796 14.9596 10.5546 14.0084 10.5546C12.9032 10.5546 12.0525 10.9434 11.4563 11.7211C10.8669 12.4923 10.5655 13.6266 10.5521 15.124V16.3676C10.5521 17.8843 10.8334 19.0411 11.396 19.838C11.9654 20.635 12.796 21.0334 13.8878 21.0334C14.8859 21.0334 15.6361 20.8181 16.1385 20.3875C16.6408 19.9569 16.959 19.2404 17.093 18.2378H19.6249Z" fill="white"/>
<path d="M21.8297 17.4955C21.8297 16.4736 22.0407 15.5546 22.4627 14.7384C22.8847 13.9158 23.4775 13.286 24.2411 12.849C25.0047 12.4055 25.8822 12.1838 26.8736 12.1838C28.3405 12.1838 29.5295 12.6369 30.4404 13.5431C31.3581 14.4492 31.8538 15.651 31.9275 17.1485L31.9375 17.6979C31.9375 18.7262 31.7299 19.6452 31.3146 20.455C30.906 21.2648 30.3165 21.8914 29.5462 22.3348C28.7826 22.7783 27.8984 23 26.8937 23C25.3598 23 24.1306 22.5116 23.2062 21.5347C22.2886 20.5514 21.8297 19.2436 21.8297 17.6112V17.4955ZM24.2713 17.6979C24.2713 18.7712 24.5024 19.6131 24.9646 20.2236C25.4267 20.8278 26.0698 21.1298 26.8937 21.1298C27.7176 21.1298 28.3573 20.8213 28.8127 20.2044C29.2749 19.5874 29.506 18.6844 29.506 17.4955C29.506 16.4415 29.2682 15.606 28.7926 14.9891C28.3238 14.3721 27.6841 14.0636 26.8736 14.0636C26.0765 14.0636 25.4435 14.3689 24.9746 14.9794C24.5057 15.5835 24.2713 16.4897 24.2713 17.6979Z" fill="white"/>
<path d="M34.1624 17.5148C34.1624 15.9081 34.5509 14.6195 35.3279 13.6491C36.1049 12.6722 37.1465 12.1838 38.4527 12.1838C39.6048 12.1838 40.5359 12.5694 41.2459 13.3406V8H43.6874V22.8072H41.477L41.3564 21.7275C40.6263 22.5758 39.6517 23 38.4326 23C37.1599 23 36.1284 22.5084 35.338 21.5251C34.5543 20.5418 34.1624 19.205 34.1624 17.5148ZM36.604 17.7172C36.604 18.7776 36.8149 19.6067 37.2369 20.2044C37.6656 20.7956 38.2718 21.0913 39.0555 21.0913C40.0536 21.0913 40.7837 20.6639 41.2459 19.8091V15.3554C40.7971 14.5199 40.0737 14.1022 39.0756 14.1022C38.2852 14.1022 37.6757 14.4042 37.247 15.0084C36.8183 15.606 36.604 16.509 36.604 17.7172Z" fill="white"/>
<path d="M51.6394 23C50.0921 23 48.8362 22.5341 47.8716 21.6022C46.9137 20.6639 46.4348 19.4171 46.4348 17.8618V17.5726C46.4348 16.5315 46.6425 15.6028 47.0577 14.7866C47.4797 13.964 48.0692 13.3246 48.8261 12.8683C49.583 12.412 50.427 12.1838 51.3581 12.1838C52.8384 12.1838 53.9805 12.6369 54.7843 13.5431C55.5948 14.4492 56 15.7314 56 17.3895V18.3342H48.8964C48.9701 19.1954 49.2682 19.8766 49.7907 20.3779C50.3198 20.8792 50.983 21.1298 51.7801 21.1298C52.8987 21.1298 53.8097 20.696 54.513 19.8284L55.8292 21.0334C55.3938 21.6568 54.8111 22.142 54.0809 22.4891C53.3575 22.8297 52.5437 23 51.6394 23ZM51.348 14.0636C50.6782 14.0636 50.1356 14.2886 49.7203 14.7384C49.3117 15.1883 49.0505 15.8149 48.9366 16.6183H53.5886V16.4447C53.535 15.6607 53.3173 15.0694 52.9355 14.671C52.5537 14.2661 52.0245 14.0636 51.348 14.0636Z" fill="white"/>
</svg>
